<svg width="535" height="772" viewBox="0 0 535 772" fill="none" xmlns="http://www.w3.org/2000/svg">
<path d="M275.787 520.221C277.876 479.481 279.547 384.211 269.519 329.055C260.117 278.913 245.701 169.855 263.251 134.756" stroke="#397D92" stroke-width="9" stroke-miterlimit="1.30541" stroke-linecap="round"/>
<path d="M59.5441 184.898V589.166C64.5582 589.166 78.3472 584.988 84.615 582.898C85.6596 464.856 87.7488 226.892 87.7488 219.37C87.7488 211.849 91.9273 193.255 94.0165 184.898C116.58 129.742 172.363 105.507 197.434 100.284V37.6064H194.3C96.5236 57.6632 63.7225 144.158 59.5441 184.898Z" fill="#397D92"/>
<path d="M172.363 282.048V560.961H197.434V256.977C174.87 261.991 171.318 275.78 172.363 282.048Z" fill="#397D92"/>
<path d="M134.757 250.709V567.229L159.828 560.961V269.512C162.335 261.991 167.14 253.843 169.229 250.709C179.258 243.188 192.211 239.218 197.434 238.174V184.898C154.813 187.405 137.891 229.817 134.757 250.709Z" fill="#397D92"/>
<path d="M97.1504 225.638L94.0165 579.764L122.221 570.363L125.355 238.174C130.369 190.539 175.497 170.273 197.434 166.095V119.087C119.714 131.622 98.195 195.344 97.1504 225.638Z" fill="#397D92"/>
<path d="M59.5441 184.898V589.166C64.5582 589.166 78.3472 584.988 84.615 582.898C85.6596 464.856 87.7488 226.892 87.7488 219.37C87.7488 211.849 91.9273 193.255 94.0165 184.898C116.58 129.742 172.363 105.507 197.434 100.284V37.6064H194.3C96.5236 57.6632 63.7225 144.158 59.5441 184.898Z" stroke="#377E92"/>
<path d="M172.363 282.048V560.961H197.434V256.977C174.87 261.991 171.318 275.78 172.363 282.048Z" stroke="#377E92"/>
<path d="M134.757 250.709V567.229L159.828 560.961V269.512C162.335 261.991 167.14 253.843 169.229 250.709C179.258 243.188 192.211 239.218 197.434 238.174V184.898C154.813 187.405 137.891 229.817 134.757 250.709Z" stroke="#377E92"/>
<path d="M97.1504 225.638L94.0165 579.764L122.221 570.363L125.355 238.174C130.369 190.539 175.497 170.273 197.434 166.095V119.087C119.714 131.622 98.195 195.344 97.1504 225.638Z" stroke="#377E92"/>
<path d="M482.612 184.898V589.166C477.598 589.166 463.809 584.988 457.541 582.898C456.496 464.856 454.407 226.892 454.407 219.37C454.407 211.849 450.229 193.255 448.139 184.898C425.576 129.742 369.793 105.507 344.722 100.284V37.6064H347.856C445.632 57.6632 478.433 144.158 482.612 184.898Z" fill="#397D92"/>
<path d="M369.793 282.048V560.961H344.722V256.977C367.286 261.991 370.838 275.78 369.793 282.048Z" fill="#397D92"/>
<path d="M407.399 250.709V567.229L382.328 560.961V269.512C379.821 261.991 375.016 253.843 372.927 250.709C362.898 243.188 349.945 239.218 344.722 238.174V184.898C387.343 187.405 404.265 229.817 407.399 250.709Z" fill="#397D92"/>
<path d="M445.006 225.638L448.139 579.764L419.935 570.363L416.801 238.174C411.787 190.539 366.659 170.273 344.722 166.095V119.087C422.442 131.622 443.961 195.344 445.006 225.638Z" fill="#397D92"/>
<path d="M482.612 184.898V589.166C477.598 589.166 463.809 584.988 457.541 582.898C456.496 464.856 454.407 226.892 454.407 219.37C454.407 211.849 450.229 193.255 448.139 184.898C425.576 129.742 369.793 105.507 344.722 100.284V37.6064H347.856C445.632 57.6632 478.433 144.158 482.612 184.898Z" stroke="#377E92"/>
<path d="M369.793 282.048V560.961H344.722V256.977C367.286 261.991 370.838 275.78 369.793 282.048Z" stroke="#377E92"/>
<path d="M407.399 250.709V567.229L382.328 560.961V269.512C379.821 261.991 375.016 253.843 372.927 250.709C362.898 243.188 349.945 239.218 344.722 238.174V184.898C387.343 187.405 404.265 229.817 407.399 250.709Z" stroke="#377E92"/>
<path d="M445.006 225.638L448.139 579.764L419.935 570.363L416.801 238.174C411.787 190.539 366.659 170.273 344.722 166.095V119.087C422.442 131.622 443.961 195.344 445.006 225.638Z" stroke="#377E92"/>
<path d="M18.8024 619.845C28.204 626.113 53.2748 635.515 78.3457 622.979L87.7473 619.845C126.398 602.087 216.862 579.105 269.511 629.247C291.448 608.355 357.259 577.225 445.008 619.845C458.588 627.158 492.015 638.022 517.086 622.979" stroke="#397D92" stroke-width="15"/>
<rect y="660.588" width="534.092" height="14.0551" fill="#397D92"/>
<path d="M288.308 47.0079C288.308 55.6618 281.293 62.6772 272.639 62.6772C263.985 62.6772 256.969 55.6618 256.969 47.0079C256.969 41.8822 259.43 37.3313 263.236 34.4725C263.791 34.0548 250.092 6.60969 250.702 6.26772C251.342 5.90875 266.294 32.6569 266.986 32.3893C267.946 32.0179 268.951 31.7382 269.992 31.5612C270.852 31.4148 271.737 0 272.639 0C273.712 0 274.76 31.4465 275.773 31.6521C282.925 33.1039 288.308 39.4272 288.308 47.0079Z" fill="#397D92"/>
<path d="M272.627 94.0156L269.493 56.4093H275.761L272.627 94.0156Z" fill="#397D92"/>
<path d="M247.083 83.6854L264.371 50.1418L269.685 53.466L247.083 83.6854Z" fill="#397D92"/>
<path d="M225.627 47.0075L263.234 43.8737V50.1414L225.627 47.0075Z" fill="#397D92"/>
<path d="M298.433 1.95087L281.137 35.4363L276.869 32.8609L298.433 1.95087Z" fill="#397D92"/>
<path d="M232.27 67.969L262.875 45.8917L266.107 51.2619L232.27 67.969Z" fill="#397D92"/>
<path d="M233.508 21.4901L267.359 38.1671L264.132 43.5401L233.508 21.4901Z" fill="#397D92"/>
<path d="M295.633 85.9906L277.105 58.7241L282.053 55.9517L295.633 85.9906Z" fill="#397D92"/>
<path d="M315.489 72.2668L282.032 56.3937L284.862 51.4512L315.489 72.2668Z" fill="#397D92"/>
<path d="M319.639 47.008L282.032 50.1418L282.032 43.8741L319.639 47.008Z" fill="#397D92"/>
<path d="M315.13 21.7623L285.452 43.9199L282.334 38.972L315.13 21.7623Z" fill="#397D92"/>
<path d="M232.743 702.312C232.743 702.504 232.735 702.792 232.719 703.176C232.703 703.56 232.679 703.944 232.647 704.328C232.631 704.712 232.615 705.016 232.599 705.24L239.487 694.464H242.079V707.328H240.111V699.744C240.111 699.488 240.111 699.152 240.111 698.736C240.127 698.32 240.143 697.912 240.159 697.512C240.175 697.096 240.191 696.784 240.207 696.576L233.367 707.328H230.751V694.464H232.743V702.312ZM259.973 694.464V707.328H258.077V699.12C258.077 698.784 258.085 698.432 258.101 698.064C258.133 697.696 258.165 697.336 258.197 696.984H258.125L253.925 707.328H252.149L248.069 696.984H247.997C248.045 697.704 248.069 698.44 248.069 699.192V707.328H246.173V694.464H248.981L253.037 704.808L257.165 694.464H259.973ZM269.047 694.224C270.151 694.224 271.095 694.464 271.879 694.944C272.679 695.424 273.287 696.104 273.703 696.984C274.135 697.848 274.351 698.864 274.351 700.032V701.304H265.543C265.575 702.76 265.943 703.872 266.647 704.64C267.367 705.392 268.367 705.768 269.647 705.768C270.463 705.768 271.183 705.696 271.807 705.552C272.447 705.392 273.103 705.168 273.775 704.88V706.728C273.119 707.016 272.471 707.224 271.831 707.352C271.191 707.496 270.431 707.568 269.551 707.568C268.335 707.568 267.255 707.32 266.311 706.824C265.383 706.328 264.655 705.592 264.127 704.616C263.615 703.624 263.359 702.416 263.359 700.992C263.359 699.584 263.591 698.376 264.055 697.368C264.535 696.36 265.199 695.584 266.047 695.04C266.911 694.496 267.911 694.224 269.047 694.224ZM269.023 695.952C268.015 695.952 267.215 696.28 266.623 696.936C266.047 697.576 265.703 698.472 265.591 699.624H272.143C272.127 698.536 271.871 697.656 271.375 696.984C270.879 696.296 270.095 695.952 269.023 695.952ZM279.738 694.464V699.816H286.722V694.464H288.834V707.328H286.722V701.592H279.738V707.328H277.626V694.464H279.738ZM294.899 702.312C294.899 702.504 294.891 702.792 294.875 703.176C294.859 703.56 294.835 703.944 294.803 704.328C294.787 704.712 294.771 705.016 294.755 705.24L301.643 694.464H304.235V707.328H302.267V699.744C302.267 699.488 302.267 699.152 302.267 698.736C302.283 698.32 302.299 697.912 302.315 697.512C302.331 697.096 302.347 696.784 302.363 696.576L295.523 707.328H292.907V694.464H294.899V702.312ZM85.4821 730.8C89.2261 730.896 92.2021 731.552 94.4101 732.768C96.6501 733.952 98.2501 735.488 99.2101 737.376C100.202 739.264 100.698 741.328 100.698 743.568C100.698 745.008 100.442 746.48 99.9301 747.984C99.4501 749.488 98.6181 750.88 97.4341 752.16C96.2821 753.408 94.7301 754.432 92.7781 755.232C90.8261 756.032 88.3941 756.464 85.4821 756.528V761.808H78.9541V756.528C76.0101 756.464 73.5461 756.032 71.5621 755.232C69.6101 754.432 68.0581 753.392 66.9061 752.112C65.7541 750.832 64.9381 749.456 64.4581 747.984C63.9781 746.48 63.7381 745.008 63.7381 743.568C63.7381 741.328 64.2181 739.264 65.1781 737.376C66.1701 735.488 67.7701 733.952 69.9781 732.768C72.2181 731.552 75.2101 730.896 78.9541 730.8V726.576H85.4821V730.8ZM78.9541 736.464C75.8501 736.592 73.6741 737.312 72.4261 738.624C71.1781 739.904 70.5541 741.536 70.5541 743.52C70.5541 745.664 71.2261 747.408 72.5701 748.752C73.9141 750.064 76.0421 750.784 78.9541 750.912V736.464ZM85.4821 750.912C88.4261 750.784 90.5541 750.064 91.8661 748.752C93.2101 747.408 93.8821 745.664 93.8821 743.52C93.8821 741.536 93.2581 739.904 92.0101 738.624C90.7941 737.312 88.6181 736.592 85.4821 736.464V750.912ZM126.923 761.328H107.195V727.056H126.923V733.008H114.443V740.544H126.059V746.496H114.443V755.328H126.923V761.328ZM144.71 727.056C149.286 727.056 152.742 727.696 155.078 728.976C157.414 730.256 158.582 732.512 158.582 735.744C158.582 737.696 158.118 739.344 157.19 740.688C156.294 742.032 154.998 742.848 153.302 743.136V743.376C154.454 743.6 155.494 744 156.422 744.576C157.35 745.152 158.086 745.984 158.63 747.072C159.174 748.16 159.446 749.6 159.446 751.392C159.446 754.496 158.326 756.928 156.086 758.688C153.846 760.448 150.774 761.328 146.87 761.328H134.054V727.056H144.71ZM145.526 740.64C147.638 740.64 149.094 740.304 149.894 739.632C150.726 738.96 151.142 737.984 151.142 736.704C151.142 735.392 150.662 734.448 149.702 733.872C148.742 733.296 147.222 733.008 145.142 733.008H141.302V740.64H145.526ZM141.302 746.4V755.328H146.054C148.23 755.328 149.75 754.912 150.614 754.08C151.478 753.216 151.91 752.08 151.91 750.672C151.91 749.392 151.462 748.368 150.566 747.6C149.702 746.8 148.118 746.4 145.814 746.4H141.302ZM189.968 735.072C189.968 737.376 189.152 739.232 187.52 740.64C185.888 742.048 183.808 742.928 181.28 743.28V743.424C184.416 743.744 186.816 744.624 188.48 746.064C190.176 747.472 191.024 749.312 191.024 751.584C191.024 754.592 189.792 757.056 187.328 758.976C184.896 760.864 181.312 761.808 176.576 761.808C173.984 761.808 171.68 761.648 169.664 761.328C167.68 761.008 165.952 760.544 164.48 759.936V753.84C165.472 754.32 166.592 754.736 167.84 755.088C169.088 755.408 170.352 755.664 171.632 755.856C172.912 756.016 174.096 756.096 175.184 756.096C178.224 756.096 180.416 755.664 181.76 754.8C183.136 753.904 183.824 752.656 183.824 751.056C183.824 749.424 182.832 748.24 180.848 747.504C178.864 746.736 176.192 746.352 172.832 746.352H169.616V740.688H172.496C175.216 740.688 177.328 740.512 178.832 740.16C180.336 739.808 181.392 739.296 182 738.624C182.608 737.952 182.912 737.152 182.912 736.224C182.912 735.04 182.384 734.112 181.328 733.44C180.304 732.736 178.752 732.384 176.672 732.384C174.912 732.384 173.248 732.64 171.68 733.152C170.144 733.664 168.704 734.336 167.36 735.168L164.192 730.32C165.952 729.168 167.904 728.256 170.048 727.584C172.192 726.912 174.736 726.576 177.68 726.576C181.552 726.576 184.56 727.376 186.704 728.976C188.88 730.576 189.968 732.608 189.968 735.072ZM197.429 727.056H203.957V743.616C203.957 744.416 203.941 745.312 203.909 746.304C203.877 747.296 203.845 748.272 203.813 749.232C203.781 750.16 203.749 750.976 203.717 751.68C203.685 752.352 203.653 752.816 203.621 753.072H203.765L219.605 727.056H228.293V761.328H221.813V744.864C221.813 744 221.829 743.056 221.861 742.032C221.893 740.976 221.925 739.968 221.957 739.008C222.021 738.048 222.069 737.216 222.101 736.512C222.165 735.776 222.213 735.296 222.245 735.072H222.053L206.165 761.328H197.429V727.056ZM259.059 748.176L251.043 761.328H242.979L252.723 746.256C251.795 745.872 250.867 745.312 249.939 744.576C249.011 743.808 248.243 742.8 247.635 741.552C247.027 740.272 246.723 738.704 246.723 736.848C246.723 733.68 247.859 731.264 250.131 729.6C252.403 727.904 255.587 727.056 259.683 727.056H270.819V761.328H263.571V748.176H259.059ZM259.971 733.008C258.115 733.008 256.659 733.344 255.603 734.016C254.579 734.688 254.067 735.808 254.067 737.376C254.067 738.88 254.563 740.08 255.555 740.976C256.579 741.84 258.115 742.272 260.163 742.272H263.571V733.008H259.971ZM307.397 761.328H299.141L286.709 743.952V761.328H279.461V727.056H286.709V743.664L298.997 727.056H306.725L294.245 743.52L307.397 761.328ZM328.607 751.296C327.647 753.472 326.623 755.36 325.535 756.96C324.479 758.528 323.119 759.728 321.455 760.56C319.791 761.392 317.615 761.808 314.927 761.808C314.095 761.808 313.183 761.744 312.191 761.616C311.199 761.488 310.287 761.312 309.455 761.088V754.848C310.223 755.168 311.071 755.392 311.999 755.52C312.927 755.648 313.791 755.712 314.591 755.712C316.191 755.712 317.343 755.328 318.047 754.56C318.751 753.76 319.311 752.8 319.727 751.68L307.871 727.056H315.551L321.935 741.888C322.159 742.368 322.463 743.056 322.847 743.952C323.231 744.816 323.519 745.552 323.711 746.16H323.951C324.143 745.584 324.415 744.832 324.767 743.904C325.151 742.976 325.487 742.16 325.775 741.456L331.727 727.056H339.215L328.607 751.296ZM343.539 761.328V727.056H365.187V733.056H350.787V740.208H353.667C356.899 740.208 359.539 740.656 361.587 741.552C363.667 742.448 365.203 743.68 366.195 745.248C367.187 746.816 367.683 748.608 367.683 750.624C367.683 754.016 366.547 756.656 364.275 758.544C362.035 760.4 358.451 761.328 353.523 761.328H343.539ZM353.235 755.376C355.443 755.376 357.171 755.024 358.419 754.32C359.699 753.616 360.339 752.384 360.339 750.624C360.339 748.8 359.651 747.6 358.275 747.024C356.899 746.448 355.027 746.16 352.659 746.16H350.787V755.376H353.235ZM405.252 744.144C405.252 747.696 404.66 750.8 403.476 753.456C402.324 756.08 400.548 758.128 398.148 759.6C395.748 761.072 392.676 761.808 388.932 761.808C385.22 761.808 382.148 761.072 379.716 759.6C377.316 758.128 375.524 756.064 374.34 753.408C373.188 750.752 372.612 747.648 372.612 744.096C372.612 740.544 373.188 737.456 374.34 734.832C375.524 732.208 377.316 730.176 379.716 728.736C382.148 727.264 385.236 726.528 388.98 726.528C392.692 726.528 395.748 727.264 398.148 728.736C400.548 730.176 402.324 732.224 403.476 734.88C404.66 737.504 405.252 740.592 405.252 744.144ZM380.244 744.144C380.244 747.728 380.932 750.56 382.308 752.64C383.684 754.688 385.892 755.712 388.932 755.712C392.036 755.712 394.26 754.688 395.604 752.64C396.948 750.56 397.62 747.728 397.62 744.144C397.62 740.528 396.948 737.696 395.604 735.648C394.26 733.6 392.052 732.576 388.98 732.576C385.908 732.576 383.684 733.6 382.308 735.648C380.932 737.696 380.244 740.528 380.244 744.144ZM423.007 727.056C427.583 727.056 431.039 727.696 433.375 728.976C435.711 730.256 436.879 732.512 436.879 735.744C436.879 737.696 436.415 739.344 435.487 740.688C434.591 742.032 433.295 742.848 431.599 743.136V743.376C432.751 743.6 433.791 744 434.719 744.576C435.647 745.152 436.383 745.984 436.927 747.072C437.471 748.16 437.743 749.6 437.743 751.392C437.743 754.496 436.623 756.928 434.383 758.688C432.143 760.448 429.071 761.328 425.167 761.328H412.351V727.056H423.007ZM423.823 740.64C425.935 740.64 427.391 740.304 428.191 739.632C429.023 738.96 429.439 737.984 429.439 736.704C429.439 735.392 428.959 734.448 427.999 733.872C427.039 733.296 425.519 733.008 423.439 733.008H419.599V740.64H423.823ZM419.599 746.4V755.328H424.351C426.527 755.328 428.047 754.912 428.911 754.08C429.775 753.216 430.207 752.08 430.207 750.672C430.207 749.392 429.759 748.368 428.863 747.6C427.999 746.8 426.415 746.4 424.111 746.4H419.599ZM465.577 761.328L463.081 753.168H450.601L448.105 761.328H440.281L452.377 726.912H461.257L473.401 761.328H465.577ZM458.857 739.104C458.697 738.56 458.489 737.872 458.233 737.04C457.977 736.208 457.721 735.36 457.465 734.496C457.209 733.632 457.001 732.88 456.841 732.24C456.681 732.88 456.457 733.68 456.169 734.64C455.913 735.568 455.657 736.464 455.401 737.328C455.177 738.16 455.001 738.752 454.873 739.104L452.425 747.072H461.353L458.857 739.104Z" fill="#397D92"/>
</svg>
