<svg width="52" height="75" viewBox="0 0 52 75" fill="none" xmlns="http://www.w3.org/2000/svg">
<path d="M26.8054 50.5635C27.0085 46.6037 27.1709 37.3438 26.1962 31.9829C25.2824 27.1093 23.8813 16.5092 25.587 13.0977" stroke="#397D92" stroke-miterlimit="1.30541" stroke-linecap="round"/>
<path d="M5.78741 17.9714V57.2647C6.27477 57.2647 7.61501 56.8586 8.22421 56.6555C8.32574 45.1823 8.52881 22.053 8.52881 21.322C8.52881 20.5909 8.93494 18.7836 9.13801 17.9714C11.3311 12.6104 16.753 10.2548 19.1898 9.74717V3.65518H18.8852C9.38169 5.60462 6.19355 14.0116 5.78741 17.9714Z" fill="#397D92"/>
<path d="M16.753 27.414V54.5233H19.1898V24.9772C16.9967 25.4645 16.6515 26.8048 16.753 27.414Z" fill="#397D92"/>
<path d="M13.0978 24.368V55.1325L15.5346 54.5233V26.1956C15.7783 25.4645 16.2453 24.6726 16.4484 24.368C17.4231 23.6369 18.6821 23.2511 19.1898 23.1496V17.9714C15.0472 18.215 13.4024 22.3373 13.0978 24.368Z" fill="#397D92"/>
<path d="M9.44261 21.9312L9.13801 56.3509L11.8794 55.4371L12.184 23.1496C12.6714 18.5196 17.0576 16.5499 19.1898 16.1438V11.5748C11.6357 12.7932 9.54414 18.9867 9.44261 21.9312Z" fill="#397D92"/>
<path d="M5.78741 17.9714V57.2647C6.27477 57.2647 7.61501 56.8586 8.22421 56.6555C8.32574 45.1823 8.52881 22.053 8.52881 21.322C8.52881 20.5909 8.93494 18.7836 9.13801 17.9714C11.3311 12.6104 16.753 10.2548 19.1898 9.74717V3.65518H18.8852C9.38169 5.60462 6.19355 14.0116 5.78741 17.9714Z" stroke="#377E92"/>
<path d="M16.753 27.414V54.5233H19.1898V24.9772C16.9967 25.4645 16.6515 26.8048 16.753 27.414Z" stroke="#377E92"/>
<path d="M13.0978 24.368V55.1325L15.5346 54.5233V26.1956C15.7783 25.4645 16.2453 24.6726 16.4484 24.368C17.4231 23.6369 18.6821 23.2511 19.1898 23.1496V17.9714C15.0472 18.215 13.4024 22.3373 13.0978 24.368Z" stroke="#377E92"/>
<path d="M9.44261 21.9312L9.13801 56.3509L11.8794 55.4371L12.184 23.1496C12.6714 18.5196 17.0576 16.5499 19.1898 16.1438V11.5748C11.6357 12.7932 9.54414 18.9867 9.44261 21.9312Z" stroke="#377E92"/>
<path d="M46.9081 17.9714V57.2647C46.4208 57.2647 45.0805 56.8586 44.4713 56.6555C44.3698 45.1823 44.1667 22.053 44.1667 21.322C44.1667 20.5909 43.7606 18.7836 43.5575 17.9714C41.3644 12.6104 35.9426 10.2548 33.5058 9.74717V3.65518H33.8104C43.3139 5.60462 46.502 14.0116 46.9081 17.9714Z" fill="#397D92"/>
<path d="M35.9426 27.414V54.5233H33.5058V24.9772C35.6989 25.4645 36.0441 26.8048 35.9426 27.414Z" fill="#397D92"/>
<path d="M39.5978 24.368V55.1325L37.161 54.5233V26.1956C36.9173 25.4645 36.4502 24.6726 36.2472 24.368C35.2724 23.6369 34.0134 23.2511 33.5058 23.1496V17.9714C37.6483 18.215 39.2932 22.3373 39.5978 24.368Z" fill="#397D92"/>
<path d="M43.2529 21.9312L43.5575 56.3509L40.8161 55.4371L40.5115 23.1496C40.0242 18.5196 35.638 16.5499 33.5058 16.1438V11.5748C41.0598 12.7932 43.1514 18.9867 43.2529 21.9312Z" fill="#397D92"/>
<path d="M46.9081 17.9714V57.2647C46.4208 57.2647 45.0805 56.8586 44.4713 56.6555C44.3698 45.1823 44.1667 22.053 44.1667 21.322C44.1667 20.5909 43.7606 18.7836 43.5575 17.9714C41.3644 12.6104 35.9426 10.2548 33.5058 9.74717V3.65518H33.8104C43.3139 5.60462 46.502 14.0116 46.9081 17.9714Z" stroke="#377E92"/>
<path d="M35.9426 27.414V54.5233H33.5058V24.9772C35.6989 25.4645 36.0441 26.8048 35.9426 27.414Z" stroke="#377E92"/>
<path d="M39.5978 24.368V55.1325L37.161 54.5233V26.1956C36.9173 25.4645 36.4502 24.6726 36.2472 24.368C35.2724 23.6369 34.0134 23.2511 33.5058 23.1496V17.9714C37.6483 18.215 39.2932 22.3373 39.5978 24.368Z" stroke="#377E92"/>
<path d="M43.2529 21.9312L43.5575 56.3509L40.8161 55.4371L40.5115 23.1496C40.0242 18.5196 35.638 16.5499 33.5058 16.1438V11.5748C41.0598 12.7932 43.1514 18.9867 43.2529 21.9312Z" stroke="#377E92"/>
<path d="M1.82751 60.2466C2.74131 60.8558 5.17811 61.7696 7.61491 60.5512L8.52871 60.2466C12.2854 58.5206 21.0782 56.2868 26.1955 61.1604C28.3277 59.1298 34.7243 56.1041 43.2531 60.2466C44.573 60.9574 47.8221 62.0133 50.2588 60.5512" stroke="#397D92" stroke-width="1.5"/>
<rect y="64.2067" width="51.9118" height="1.3661" fill="#397D92"/>
<path d="M28.0225 4.56896C28.0225 5.41009 27.3406 6.09196 26.4995 6.09196C25.6584 6.09196 24.9765 5.41009 24.9765 4.56896C24.9765 4.07076 25.2157 3.62843 25.5856 3.35056C25.6396 3.30997 24.308 0.642406 24.3673 0.609169C24.4295 0.574278 25.8829 3.1741 25.9501 3.14809C26.0434 3.11199 26.1411 3.08481 26.2423 3.0676C26.3259 3.05337 26.4118 -3.05176e-05 26.4995 -3.05176e-05C26.6038 -3.05176e-05 26.7057 3.05645 26.8041 3.07643C27.4993 3.21754 28.0225 3.83215 28.0225 4.56896Z" fill="#397D92"/>
<path d="M26.4984 9.13795L26.1938 5.48276H26.803L26.4984 9.13795Z" fill="#397D92"/>
<path d="M24.0156 8.13384L25.6959 4.87354L26.2124 5.19663L24.0156 8.13384Z" fill="#397D92"/>
<path d="M21.9303 4.56888L25.5854 4.26428V4.87348L21.9303 4.56888Z" fill="#397D92"/>
<path d="M29.0067 0.189588L27.3255 3.44424L26.9107 3.19393L29.0067 0.189588Z" fill="#397D92"/>
<path d="M22.5759 6.60634L25.5505 4.46051L25.8647 4.98247L22.5759 6.60634Z" fill="#397D92"/>
<path d="M22.6961 2.08871L25.9863 3.70966L25.6727 4.23189L22.6961 2.08871Z" fill="#397D92"/>
<path d="M28.7345 8.35794L26.9336 5.70773L27.4145 5.43826L28.7345 8.35794Z" fill="#397D92"/>
<path d="M30.6644 7.02404L27.4125 5.48123L27.6876 5.00085L30.6644 7.02404Z" fill="#397D92"/>
<path d="M31.0677 4.56894L27.4125 4.87354L27.4125 4.26434L31.0677 4.56894Z" fill="#397D92"/>
<path d="M30.6295 2.11519L27.7449 4.26883L27.4418 3.78791L30.6295 2.11519Z" fill="#397D92"/>
<path d="M21.6554 67.373C21.6554 67.397 21.6544 67.433 21.6524 67.481C21.6504 67.529 21.6474 67.577 21.6434 67.625C21.6414 67.673 21.6394 67.711 21.6374 67.739L22.4984 66.392H22.8224V68H22.5764V67.052C22.5764 67.02 22.5764 66.978 22.5764 66.926C22.5784 66.874 22.5804 66.823 22.5824 66.773C22.5844 66.721 22.5864 66.682 22.5884 66.656L21.7334 68H21.4064V66.392H21.6554V67.373ZM25.0591 66.392V68H24.8221V66.974C24.8221 66.932 24.8231 66.888 24.8251 66.842C24.8291 66.796 24.8331 66.751 24.8371 66.707H24.8281L24.3031 68H24.0811L23.5711 66.707H23.5621C23.5681 66.797 23.5711 66.889 23.5711 66.983V68H23.3341V66.392H23.6851L24.1921 67.685L24.7081 66.392H25.0591ZM26.1934 66.362C26.3314 66.362 26.4494 66.392 26.5474 66.452C26.6474 66.512 26.7234 66.597 26.7754 66.707C26.8294 66.815 26.8564 66.942 26.8564 67.088V67.247H25.7554C25.7594 67.429 25.8054 67.568 25.8934 67.664C25.9834 67.758 26.1084 67.805 26.2684 67.805C26.3704 67.805 26.4604 67.796 26.5384 67.778C26.6184 67.758 26.7004 67.73 26.7844 67.694V67.925C26.7024 67.961 26.6214 67.987 26.5414 68.003C26.4614 68.021 26.3664 68.03 26.2564 68.03C26.1044 68.03 25.9694 67.999 25.8514 67.937C25.7354 67.875 25.6444 67.783 25.5784 67.661C25.5144 67.537 25.4824 67.386 25.4824 67.208C25.4824 67.032 25.5114 66.881 25.5694 66.755C25.6294 66.629 25.7124 66.532 25.8184 66.464C25.9264 66.396 26.0514 66.362 26.1934 66.362ZM26.1904 66.578C26.0644 66.578 25.9644 66.619 25.8904 66.701C25.8184 66.781 25.7754 66.893 25.7614 67.037H26.5804C26.5784 66.901 26.5464 66.791 26.4844 66.707C26.4224 66.621 26.3244 66.578 26.1904 66.578ZM27.5297 66.392V67.061H28.4027V66.392H28.6667V68H28.4027V67.283H27.5297V68H27.2657V66.392H27.5297ZM29.4249 67.373C29.4249 67.397 29.4239 67.433 29.4219 67.481C29.4199 67.529 29.4169 67.577 29.4129 67.625C29.4109 67.673 29.4089 67.711 29.4069 67.739L30.2679 66.392H30.5919V68H30.3459V67.052C30.3459 67.02 30.3459 66.978 30.3459 66.926C30.3479 66.874 30.3499 66.823 30.3519 66.773C30.3539 66.721 30.3559 66.682 30.3579 66.656L29.5029 68H29.1759V66.392H29.4249V67.373ZM7.0398 70.82C7.4298 70.83 7.7398 70.8983 7.9698 71.025C8.20314 71.1483 8.3698 71.3083 8.4698 71.505C8.57314 71.7017 8.6248 71.9167 8.6248 72.15C8.6248 72.3 8.59814 72.4533 8.5448 72.61C8.4948 72.7667 8.40814 72.9117 8.2848 73.045C8.1648 73.175 8.00314 73.2817 7.7998 73.365C7.59647 73.4483 7.34314 73.4933 7.0398 73.5V74.05H6.3598V73.5C6.05314 73.4933 5.79647 73.4483 5.5898 73.365C5.38647 73.2817 5.2248 73.1733 5.1048 73.04C4.9848 72.9067 4.8998 72.7633 4.8498 72.61C4.7998 72.4533 4.7748 72.3 4.7748 72.15C4.7748 71.9167 4.8248 71.7017 4.9248 71.505C5.02814 71.3083 5.1948 71.1483 5.4248 71.025C5.65814 70.8983 5.9698 70.83 6.3598 70.82V70.38H7.0398V70.82ZM6.3598 71.41C6.03647 71.4233 5.8098 71.4983 5.6798 71.635C5.5498 71.7683 5.4848 71.9383 5.4848 72.145C5.4848 72.3683 5.5548 72.55 5.6948 72.69C5.8348 72.8267 6.05647 72.9017 6.3598 72.915V71.41ZM7.0398 72.915C7.34647 72.9017 7.56814 72.8267 7.7048 72.69C7.8448 72.55 7.9148 72.3683 7.9148 72.145C7.9148 71.9383 7.8498 71.7683 7.7198 71.635C7.59314 71.4983 7.36647 71.4233 7.0398 71.41V72.915ZM11.3566 74H9.30156V70.43H11.3566V71.05H10.0566V71.835H11.2666V72.455H10.0566V73.375H11.3566V74ZM13.2094 70.43C13.6861 70.43 14.0461 70.4967 14.2894 70.63C14.5327 70.7633 14.6544 70.9983 14.6544 71.335C14.6544 71.5383 14.6061 71.71 14.5094 71.85C14.4161 71.99 14.2811 72.075 14.1044 72.105V72.13C14.2244 72.1533 14.3327 72.195 14.4294 72.255C14.5261 72.315 14.6027 72.4017 14.6594 72.515C14.7161 72.6283 14.7444 72.7783 14.7444 72.965C14.7444 73.2883 14.6277 73.5417 14.3944 73.725C14.1611 73.9083 13.8411 74 13.4344 74H12.0994V70.43H13.2094ZM13.2944 71.845C13.5144 71.845 13.6661 71.81 13.7494 71.74C13.8361 71.67 13.8794 71.5683 13.8794 71.435C13.8794 71.2983 13.8294 71.2 13.7294 71.14C13.6294 71.08 13.4711 71.05 13.2544 71.05H12.8544V71.845H13.2944ZM12.8544 72.445V73.375H13.3494C13.5761 73.375 13.7344 73.3317 13.8244 73.245C13.9144 73.155 13.9594 73.0367 13.9594 72.89C13.9594 72.7567 13.9127 72.65 13.8194 72.57C13.7294 72.4867 13.5644 72.445 13.3244 72.445H12.8544ZM17.9238 71.265C17.9238 71.505 17.8388 71.6983 17.6688 71.845C17.4988 71.9917 17.2821 72.0833 17.0188 72.12V72.135C17.3455 72.1683 17.5955 72.26 17.7688 72.41C17.9455 72.5567 18.0338 72.7483 18.0338 72.985C18.0338 73.2983 17.9055 73.555 17.6488 73.755C17.3955 73.9517 17.0221 74.05 16.5288 74.05C16.2588 74.05 16.0188 74.0333 15.8088 74C15.6021 73.9667 15.4221 73.9183 15.2688 73.855V73.22C15.3721 73.27 15.4888 73.3133 15.6188 73.35C15.7488 73.3833 15.8805 73.41 16.0138 73.43C16.1471 73.4467 16.2705 73.455 16.3838 73.455C16.7005 73.455 16.9288 73.41 17.0688 73.32C17.2121 73.2267 17.2838 73.0967 17.2838 72.93C17.2838 72.76 17.1805 72.6367 16.9738 72.56C16.7671 72.48 16.4888 72.44 16.1388 72.44H15.8038V71.85H16.1038C16.3871 71.85 16.6071 71.8317 16.7638 71.795C16.9205 71.7583 17.0305 71.705 17.0938 71.635C17.1571 71.565 17.1888 71.4817 17.1888 71.385C17.1888 71.2617 17.1338 71.165 17.0238 71.095C16.9171 71.0217 16.7555 70.985 16.5388 70.985C16.3555 70.985 16.1821 71.0117 16.0188 71.065C15.8588 71.1183 15.7088 71.1883 15.5688 71.275L15.2388 70.77C15.4221 70.65 15.6255 70.555 15.8488 70.485C16.0721 70.415 16.3371 70.38 16.6438 70.38C17.0471 70.38 17.3605 70.4633 17.5838 70.63C17.8105 70.7967 17.9238 71.0083 17.9238 71.265ZM18.701 70.43H19.381V72.155C19.381 72.2383 19.3793 72.3317 19.376 72.435C19.3726 72.5383 19.3693 72.64 19.366 72.74C19.3626 72.8367 19.3593 72.9217 19.356 72.995C19.3526 73.065 19.3493 73.1133 19.346 73.14H19.361L21.011 70.43H21.916V74H21.241V72.285C21.241 72.195 21.2426 72.0967 21.246 71.99C21.2493 71.88 21.2526 71.775 21.256 71.675C21.2626 71.575 21.2676 71.4883 21.271 71.415C21.2776 71.3383 21.2826 71.2883 21.286 71.265H21.266L19.611 74H18.701V70.43ZM25.1207 72.63L24.2857 74H23.4457L24.4607 72.43C24.364 72.39 24.2674 72.3317 24.1707 72.255C24.074 72.175 23.994 72.07 23.9307 71.94C23.8674 71.8067 23.8357 71.6433 23.8357 71.45C23.8357 71.12 23.954 70.8683 24.1907 70.695C24.4274 70.5183 24.759 70.43 25.1857 70.43H26.3457V74H25.5907V72.63H25.1207ZM25.2157 71.05C25.0224 71.05 24.8707 71.085 24.7607 71.155C24.654 71.225 24.6007 71.3417 24.6007 71.505C24.6007 71.6617 24.6524 71.7867 24.7557 71.88C24.8624 71.97 25.0224 72.015 25.2357 72.015H25.5907V71.05H25.2157ZM30.1559 74H29.2959L28.0009 72.19V74H27.2459V70.43H28.0009V72.16L29.2809 70.43H30.0859L28.7859 72.145L30.1559 74ZM32.3653 72.955C32.2653 73.1817 32.1586 73.3783 32.0453 73.545C31.9353 73.7083 31.7936 73.8333 31.6203 73.92C31.4469 74.0067 31.2203 74.05 30.9403 74.05C30.8536 74.05 30.7586 74.0433 30.6553 74.03C30.5519 74.0167 30.4569 73.9983 30.3703 73.975V73.325C30.4503 73.3583 30.5386 73.3817 30.6353 73.395C30.7319 73.4083 30.8219 73.415 30.9053 73.415C31.0719 73.415 31.1919 73.375 31.2653 73.295C31.3386 73.2117 31.3969 73.1117 31.4403 72.995L30.2053 70.43H31.0053L31.6703 71.975C31.6936 72.025 31.7253 72.0967 31.7653 72.19C31.8053 72.28 31.8353 72.3567 31.8553 72.42H31.8803C31.9003 72.36 31.9286 72.2817 31.9653 72.185C32.0053 72.0883 32.0403 72.0033 32.0703 71.93L32.6903 70.43H33.4703L32.3653 72.955ZM33.9207 74V70.43H36.1757V71.055H34.6757V71.8H34.9757C35.3124 71.8 35.5874 71.8467 35.8007 71.94C36.0174 72.0333 36.1774 72.1617 36.2807 72.325C36.384 72.4883 36.4357 72.675 36.4357 72.885C36.4357 73.2383 36.3174 73.5133 36.0807 73.71C35.8474 73.9033 35.474 74 34.9607 74H33.9207ZM34.9307 73.38C35.1607 73.38 35.3407 73.3433 35.4707 73.27C35.604 73.1967 35.6707 73.0683 35.6707 72.885C35.6707 72.695 35.599 72.57 35.4557 72.51C35.3124 72.45 35.1174 72.42 34.8707 72.42H34.6757V73.38H34.9307ZM40.3492 72.21C40.3492 72.58 40.2875 72.9033 40.1642 73.18C40.0442 73.4533 39.8592 73.6667 39.6092 73.82C39.3592 73.9733 39.0392 74.05 38.6492 74.05C38.2625 74.05 37.9425 73.9733 37.6892 73.82C37.4392 73.6667 37.2525 73.4517 37.1292 73.175C37.0092 72.8983 36.9492 72.575 36.9492 72.205C36.9492 71.835 37.0092 71.5133 37.1292 71.24C37.2525 70.9667 37.4392 70.755 37.6892 70.605C37.9425 70.4517 38.2642 70.375 38.6542 70.375C39.0408 70.375 39.3592 70.4517 39.6092 70.605C39.8592 70.755 40.0442 70.9683 40.1642 71.245C40.2875 71.5183 40.3492 71.84 40.3492 72.21ZM37.7442 72.21C37.7442 72.5833 37.8158 72.8783 37.9592 73.095C38.1025 73.3083 38.3325 73.415 38.6492 73.415C38.9725 73.415 39.2042 73.3083 39.3442 73.095C39.4842 72.8783 39.5542 72.5833 39.5542 72.21C39.5542 71.8333 39.4842 71.5383 39.3442 71.325C39.2042 71.1117 38.9742 71.005 38.6542 71.005C38.3342 71.005 38.1025 71.1117 37.9592 71.325C37.8158 71.5383 37.7442 71.8333 37.7442 72.21ZM42.1987 70.43C42.6753 70.43 43.0353 70.4967 43.2787 70.63C43.522 70.7633 43.6437 70.9983 43.6437 71.335C43.6437 71.5383 43.5953 71.71 43.4987 71.85C43.4053 71.99 43.2703 72.075 43.0937 72.105V72.13C43.2137 72.1533 43.322 72.195 43.4187 72.255C43.5153 72.315 43.592 72.4017 43.6487 72.515C43.7053 72.6283 43.7337 72.7783 43.7337 72.965C43.7337 73.2883 43.617 73.5417 43.3837 73.725C43.1503 73.9083 42.8303 74 42.4237 74H41.0887V70.43H42.1987ZM42.2837 71.845C42.5037 71.845 42.6553 71.81 42.7387 71.74C42.8253 71.67 42.8687 71.5683 42.8687 71.435C42.8687 71.2983 42.8187 71.2 42.7187 71.14C42.6187 71.08 42.4603 71.05 42.2437 71.05H41.8437V71.845H42.2837ZM41.8437 72.445V73.375H42.3387C42.5653 73.375 42.7237 73.3317 42.8137 73.245C42.9037 73.155 42.9487 73.0367 42.9487 72.89C42.9487 72.7567 42.902 72.65 42.8087 72.57C42.7187 72.4867 42.5537 72.445 42.3137 72.445H41.8437ZM46.633 74L46.373 73.15H45.073L44.813 74H43.998L45.258 70.415H46.183L47.448 74H46.633ZM45.933 71.685C45.9164 71.6283 45.8947 71.5567 45.868 71.47C45.8414 71.3833 45.8147 71.295 45.788 71.205C45.7614 71.115 45.7397 71.0367 45.723 70.97C45.7064 71.0367 45.683 71.12 45.653 71.22C45.6264 71.3167 45.5997 71.41 45.573 71.5C45.5497 71.5867 45.5314 71.6483 45.518 71.685L45.263 72.515H46.193L45.933 71.685Z" fill="#397D92"/>
</svg>
